<?xml version="1.0" encoding="UTF-8" standalone="no"?>
<svg
   viewBox="15.5 15.5 999.99994 1000.2591"
   version="1.1"
   id="svg17"
   sodipodi:docname="Google_Chrome_icon_(2011).svg"
   width="999.99994"
   height="1000.259"
   inkscape:version="1.3.2 (091e20e, 2023-11-25, custom)"
   xmlns:inkscape="http://www.inkscape.org/namespaces/inkscape"
   xmlns:sodipodi="http://sodipodi.sourceforge.net/DTD/sodipodi-0.dtd"
   xmlns="http://www.w3.org/2000/svg"
   xmlns:svg="http://www.w3.org/2000/svg">
  <sodipodi:namedview
     id="namedview17"
     pagecolor="#ffffff"
     bordercolor="#000000"
     borderopacity="0.25"
     inkscape:showpageshadow="2"
     inkscape:pageopacity="0.0"
     inkscape:pagecheckerboard="0"
     inkscape:deskcolor="#d1d1d1"
     inkscape:zoom="0.50886818"
     inkscape:cx="500.12952"
     inkscape:cy="500.12952"
     inkscape:window-width="1366"
     inkscape:window-height="705"
     inkscape:window-x="-8"
     inkscape:window-y="-8"
     inkscape:window-maximized="1"
     inkscape:current-layer="svg17" />
  <defs
     id="defs11">
    <radialGradient
       cy="19.52499"
       cx="106.73546"
       id="r"
       gradientTransform="matrix(5.5145348,0,0,3.633079,-56.252286,-55.435836)"
       fx="106.73546"
       fy="19.52499"
       r="78.326782"
       gradientUnits="userSpaceOnUse">
      <stop
         stop-color="#f06b59"
         id="stop1" />
      <stop
         offset="1"
         stop-color="#df2227"
         id="stop2" />
    </radialGradient>
    <radialGradient
       r="122.76932"
       cy="108.80645"
       cx="122.26707"
       id="g"
       gradientTransform="matrix(4.1554579,0,0,4.8213074,-56.252286,-55.435836)"
       fx="122.26707"
       fy="108.80645"
       gradientUnits="userSpaceOnUse">
      <stop
         offset="0.65"
         stop-color="#4cb749"
         id="stop3" />
      <stop
         offset="1"
         stop-color="#388b41"
         id="stop4" />
    </radialGradient>
    <radialGradient
       r="111.5125"
       cy="102.2451"
       cx="187.90099"
       id="y"
       gradientTransform="matrix(3.8675923,0,0,5.1801583,-56.252286,-55.435836)"
       fx="187.90099"
       fy="102.2451"
       gradientUnits="userSpaceOnUse">
      <stop
         offset="0.6"
         stop-color="#FCD209"
         id="stop5" />
      <stop
         offset="0.7"
         stop-color="#f7c616"
         id="stop6" />
      <stop
         offset="1"
         stop-color="#bc821e"
         id="stop7" />
    </radialGradient>
    <radialGradient
       r="90"
       cy="82.599998"
       cx="127.5"
       spreadMethod="pad"
       id="cf"
       fx="127.5"
       fy="82.599998"
       gradientUnits="userSpaceOnUse"
       gradientTransform="matrix(0.93629117,0,0,0.9362912,8.2089939,8.3493475)">
      <stop
         offset="0.1"
         stop-color="#7FB3DF"
         id="stop8" />
      <stop
         offset="0.9"
         stop-color="#0F5B94"
         id="stop9" />
    </radialGradient>
    <radialGradient
       id="cb"
       r="99"
       cy="78.099609"
       cx="127.5"
       fx="127.5"
       fy="78.099609"
       gradientUnits="userSpaceOnUse">
      <stop
         offset="0"
         stop-color="#F6F0EE"
         id="stop10" />
      <stop
         offset="1"
         stop-color="#ddd"
         id="stop11" />
    </radialGradient>
  </defs>
  <path
     d="m 829.99934,607.01488 a 313.32128,313.32128 0 0 0 -626.64257,0 h 89.52037 a 223.80092,223.80092 0 0 1 447.60183,0"
     fill-opacity="0.1"
     id="path11"
     style="stroke-width:4.47602" />
  <g
     id="circle11"
     transform="matrix(4.4760184,0,0,4.4760184,-56.252286,-55.435836)">
    <path
       style="color:#000000;fill:url(#cb);-inkscape-stroke:none"
       d="m 127.5,78.099609 c -27.28477,0 -49.5,22.215231 -49.5,49.500001 0,27.28477 22.21523,49.5 49.5,49.5 27.28477,0 49.5,-22.21523 49.5,-49.5 0,-27.28477 -22.21523,-49.500001 -49.5,-49.500001 z"
       id="path19" />
    <path
       style="color:#000000;fill:url(#cf);stroke-width:0.936291;-inkscape-stroke:none"
       d="M 169.71924,127.82011 A 42.133105,42.133105 0 0 1 127.58613,169.95322 42.133105,42.133105 0 0 1 85.453019,127.82011 42.133105,42.133105 0 0 1 127.58613,85.687 a 42.133105,42.133105 0 0 1 42.13311,42.13311 z"
       id="path18" />
  </g>
  <path
     d="M 964.27989,293.69359 A 501.31406,501.31406 0 0 0 100.40835,235.50535 l 201.42083,349.12944 a 223.80092,223.80092 0 0 1 210.37286,-290.9412"
     fill="url(#r)"
     id="path12"
     style="fill:url(#r);stroke-width:4.47602" />
  <path
     d="M 100.40835,235.50535 A 501.31406,501.31406 0 0 0 476.39389,1014.3325 L 686.76675,656.25108 A 223.80092,223.80092 0 0 1 301.82918,584.63479"
     fill="url(#g)"
     id="path13"
     style="fill:url(#g);stroke-width:4.47602" />
  <path
     d="m 476.39389,1014.3325 a 501.31406,501.31406 0 0 0 487.886,-720.63891 H 512.20204 a 223.80092,223.80092 0 0 1 174.56471,362.55749"
     fill="url(#y)"
     id="path14"
     style="fill:url(#y);stroke-width:4.47602" />
  <path
     d="m 100.40835,235.50535 201.42083,349.12944 a 223.80092,223.80092 0 0 1 8.95203,-152.18463 L 109.36039,222.0773"
     opacity="0.075"
     id="path15"
     style="stroke-width:4.47602" />
  <path
     d="M 476.39389,1014.3325 686.76675,656.25108 a 223.80092,223.80092 0 0 1 -129.80453,76.09231 l -89.52037,281.98911"
     opacity="0.05"
     id="path16"
     style="stroke-width:4.47602" />
  <path
     d="M 964.27989,293.69359 H 512.20204 a 223.80092,223.80092 0 0 1 174.56471,85.04435 l 286.46518,-71.61629"
     opacity="0.05"
     id="path17"
     style="stroke-width:4.47602" />
</svg>
