<?xml version="1.0" encoding="UTF-8"?>
<svg id="svg8" xmlns="http://www.w3.org/2000/svg" width="500" height="500" viewBox="0 0 500 500">
  <defs>
    <style>
      .cls-1 {
        fill: #00acff;
      }

      .cls-1, .cls-2 {
        stroke-width: 0px;
      }

      .cls-2 {
        fill: #fff;
      }
    </style>
  </defs>
  <g id="layer1">
    <circle id="path875" class="cls-1" cx="250" cy="250" r="250"/>
    <path id="path847" class="cls-2" d="M224.68,448.66c-35.02-4.49-68.52-18.45-97.75-40.74-9.53-7.27-27.42-25.27-35.23-35.46-21.87-28.53-35.47-60.91-39.95-95.13-1.92-14.65-1.91-41.59.02-54.98,9.66-66.94,51.78-124.35,112.27-153.02,28.14-13.34,53.89-18.98,86.59-18.98,52.9,0,99.85,18.95,137.9,55.66,18.33,17.69,30.62,34.46,41.15,56.15,14.24,29.34,20,54.87,20,88.55,0,44.34-12.8,83-39.4,118.97-7.9,10.69-23.34,26.93-33.58,35.32-28.1,23.03-63.92,38.62-99.46,43.28-12.28,1.61-41.29,1.81-52.57.36h0ZM298.81,412.75c21.4-6.74,38.83-15.81,55.66-28.94,8.95-6.98,24.42-22.6,30.91-31.2,17.59-23.34,29.56-52.57,33.09-80.8,1.7-13.6.71-42.36-1.88-54.84-6.86-33.07-21.64-61.01-44.93-84.92-14.52-14.9-27.73-24.73-44.74-33.25-25.8-12.94-47.91-18.16-76.94-18.19-30.74-.03-57.69,7.01-84.37,22.05-24.28,13.69-49.39,38.83-63.14,63.21-10.13,17.96-17.54,39.27-20.43,58.75-1.9,12.77-1.93,38.13-.07,50.36,3.72,24.47,13,48.65,26.46,68.94,7.35,11.08,7.12,10.95,13.6,7.25,11.6-6.63,14.62-9.84,20.94-22.22,7.39-14.47,15.28-27.12,22.42-35.9,8.24-10.14,9.37-11.94,13.5-21.52,2.08-4.82,5.81-11.89,8.29-15.72l4.51-6.96-5.83-5.73c-7.75-7.62-14.19-16.25-15.41-20.64-1.24-4.49.22-6.99,6.04-10.35,5.89-3.4,10.1-4.38,25.83-5.99,7.66-.79,15.98-2.23,18.59-3.22,2.61-.99,10.39-5.23,17.3-9.42,19.95-12.1,21.64-12.72,33.6-12.46q10.1.22,16.11-3.41c12.55-7.59,30.58-21.28,54.31-41.25,4.55-3.83,8.93-6.83,9.74-6.68,3.36.65,9.52,15.77,10.46,25.66.57,6-.59,11.93-4.15,21.21-.97,2.53-1.42,4.95-.99,5.37,1.02,1.01,4.51-3.35,4.51-5.63,0-2.91,1.93-3.24,4.55-.78,1.91,1.79,3.55,2.3,7.38,2.3,4.19,0,5.22.39,6.86,2.57,2.77,3.7,3.42,13.78,1.3,20.17-2.06,6.21-8.3,13.38-13.97,16.04-5.07,2.38-15.32,12.4-20.12,19.65-1.84,2.78-5.28,8.56-7.66,12.86-2.37,4.3-6.35,10.79-8.85,14.43-4.9,7.16-9.1,17.14-13.16,31.28-2.38,8.31-2.58,10.47-2.68,29-.12,22.38-1.28,27.87-7.33,34.76-6.88,7.83-13.74,25.04-14.32,35.89-.36,6.85-1.42,13.52-2.92,18.46-.66,2.18.57,2.15,7.91-.16h0Z"/>
    <path id="path814" class="cls-1" d="M258.04,204.89l9.02-11.55,14.51-2.04-9.02,11.55-14.51,2.04Z"/>
  </g>
</svg>