<svg id="Layer_1" data-name="Layer 1" xmlns="http://www.w3.org/2000/svg" viewBox="0 0 255.96 255.96"><defs><style>.cls-1{fill:#fa1e4e;}</style></defs><path class="cls-1" d="M210.15,218.7A82.16,82.16,0,0,1,165,232.38c-26.09,0-50.68-12.61-67.79-34.64l-.21-.21c-13-15.4-20.75-38.07-21.39-62V130c.64-24,8.34-46.62,21.6-62.23,17.11-22,41.7-34.64,67.79-34.64a82.16,82.16,0,0,1,45.12,13.68,115.69,115.69,0,0,1,0,171.93m-83,29.51A115.43,115.43,0,0,1,16.84,132.52c0-63.72,52-115.9,115.9-115.9h.43a115.65,115.65,0,0,1,29.72,4.07c-29.08.64-56.24,15-74.84,39.13-14.76,17.53-23.74,42.76-24.17,69.71v5.77c.64,26.73,9.41,52,24.17,69.5,18.81,24.38,46,38.7,75.05,39.34a107.85,107.85,0,0,1-35.92,4.07M217.84,37.15A126.71,126.71,0,0,0,133,4.65h-.43a127.95,127.95,0,0,0-6,255.75c1.92,0,4.06.21,6,.21A128,128,0,0,0,217.84,37.15" transform="translate(-4.65 -4.65)"/><path class="cls-1" d="M156.05,51.91c22.88,14.75,38.49,45.33,38.49,80.83s-15.83,66.07-38.49,80.83c29.08-2.57,52.39-37.64,52.39-80.83s-23.31-78.27-52.39-80.83" transform="translate(-4.65 -4.65)"/></svg>