<?xml version="1.0" encoding="UTF-8" standalone="no"?>
<svg
   xmlns:dc="http://purl.org/dc/elements/1.1/"
   xmlns:cc="http://creativecommons.org/ns#"
   xmlns:rdf="http://www.w3.org/1999/02/22-rdf-syntax-ns#"
   xmlns:svg="http://www.w3.org/2000/svg"
   xmlns="http://www.w3.org/2000/svg"
   xmlns:sodipodi="http://sodipodi.sourceforge.net/DTD/sodipodi-0.dtd"
   xmlns:inkscape="http://www.inkscape.org/namespaces/inkscape"
   viewBox="0 0 999.99995 1000.0053"
   version="1.1"
   id="svg24"
   sodipodi:docname="Opera_2015_icon.svg"
   width="1000"
   height="1000.0053"
   inkscape:version="1.0.2 (e86c870879, 2021-01-15)">
  <metadata
     id="metadata30">
    <rdf:RDF>
      <cc:Work
         rdf:about="">
        <dc:format>image/svg+xml</dc:format>
        <dc:type
           rdf:resource="http://purl.org/dc/dcmitype/StillImage" />
      </cc:Work>
    </rdf:RDF>
  </metadata>
  <defs
     id="defs28" />
  <sodipodi:namedview
     pagecolor="#ffffff"
     bordercolor="#666666"
     borderopacity="1"
     objecttolerance="10"
     gridtolerance="10"
     guidetolerance="10"
     inkscape:pageopacity="0"
     inkscape:pageshadow="2"
     inkscape:window-width="1366"
     inkscape:window-height="705"
     id="namedview26"
     showgrid="false"
     inkscape:zoom="0.5"
     inkscape:cx="37.795502"
     inkscape:cy="451.36916"
     inkscape:window-x="-8"
     inkscape:window-y="-8"
     inkscape:window-maximized="1"
     inkscape:current-layer="svg24" />
  <linearGradient
     id="a"
     gradientTransform="matrix(0,-54.944,-54.944,0,23.62,79.474)"
     gradientUnits="userSpaceOnUse"
     x2="1">
    <stop
       offset="0"
       stop-color="#ff1b2d"
       id="stop2" />
    <stop
       offset=".3"
       stop-color="#ff1b2d"
       id="stop4" />
    <stop
       offset=".614"
       stop-color="#ff1b2d"
       id="stop6" />
    <stop
       offset="1"
       stop-color="#a70014"
       id="stop8" />
  </linearGradient>
  <linearGradient
     id="b"
     gradientTransform="matrix(0,-48.595,-48.595,0,37.854,76.235)"
     gradientUnits="userSpaceOnUse"
     x2="1">
    <stop
       offset="0"
       stop-color="#9c0000"
       id="stop11" />
    <stop
       offset=".7"
       stop-color="#ff4b4b"
       id="stop13" />
    <stop
       offset="1"
       stop-color="#ff4b4b"
       id="stop15" />
  </linearGradient>
  <g
     transform="matrix(17.638737,0,0,-17.638737,0,1418.1415)"
     id="g22">
    <path
       d="M 28.346,80.398 C 12.691,80.398 0,67.707 0,52.052 0,36.85 11.968,24.443 26.996,23.739 c 0.44848,-0.02115 0.89766,-0.03314 1.3504,-0.03314 7.2574,0 13.876,2.7289 18.891,7.2137 -3.3227,-2.2036 -7.2074,-3.4715 -11.359,-3.4715 -6.7504,0 -12.796,3.3488 -16.862,8.6297 -3.1344,3.6999 -5.1645,9.1691 -5.3028,15.307 v 1.3349 c 0.13821,6.1377 2.1683,11.608 5.302,15.307 4.0666,5.2809 10.112,8.6297 16.862,8.6297 4.1526,0 8.038,-1.2679 11.361,-3.4729 -4.9904,4.4643 -11.569,7.1876 -18.786,7.2144 -0.03596,0 -0.07122,0.0014 -0.10718,0.0014 z"
       fill="url(#a)"
       id="path18"
       style="fill:url(#a)" />
    <path
       d="m 19.016,68.025 c 2.6013,3.0709 5.9607,4.9227 9.631,4.9227 8.2524,0 14.941,-9.356 14.941,-20.897 0,-11.541 -6.6891,-20.897 -14.941,-20.897 -3.6703,0 -7.0297,1.851 -9.6303,4.922 4.0659,-5.2809 10.111,-8.6297 16.862,-8.6297 4.1519,0 8.0366,1.2679 11.359,3.4715 5.802,5.1906 9.4554,12.735 9.4554,21.133 0,8.397 -3.6527,15.941 -9.4533,21.131 -3.3234,2.205 -7.2088,3.4729 -11.361,3.4729 -6.7504,0 -12.796,-3.3488 -16.862,-8.6297"
       fill="url(#b)"
       id="path20"
       style="fill:url(#b)" />
  </g>
</svg>
